<svg xmlns="http://www.w3.org/2000/svg" width="20.198" height="20" viewBox="0 0 20.198 20">
  <g id="noun-call-3267692" transform="translate(-73.488)">
    <path id="패스_5496" data-name="패스 5496" d="M83.588,0a10.055,10.055,0,0,1,10.1,10,10.115,10.115,0,0,1-14.673,8.915l-5.525.793,1.225-4.935A9.9,9.9,0,0,1,73.488,10a10.051,10.051,0,0,1,10.1-10Zm0,1.3A8.741,8.741,0,0,0,74.8,10a8.6,8.6,0,0,0,1.186,4.372l.144.243-.658,3.109,3.672-.21.244.132A8.809,8.809,0,0,0,92.374,10a8.739,8.739,0,0,0-8.786-8.7Z" fill="#fff"/>
    <path id="패스_5497" data-name="패스 5497" d="M234.233,146.431a12.523,12.523,0,0,0,4.873,4.873,2.257,2.257,0,0,0,2.7-.515c.254-.27.208-.536.2-.869a.57.57,0,0,0-.352-.523l-1.324-.567a.567.567,0,0,0-.567.062l-.806.575a10.364,10.364,0,0,1-2.882-2.882l.575-.805a.566.566,0,0,0,.061-.567l-.567-1.324a.572.572,0,0,0-.523-.352c-.334-.007-.6-.053-.869.2a2.256,2.256,0,0,0-.515,2.7Z" transform="translate(-154.423 -137.527)" fill="#fff" fill-rule="evenodd"/>
  </g>
</svg>
